# xmcd
#
# Track frame offsets: 
#        150
#        14616
#        32266
#        43786
#        55059
#        75350
#        90004
#        104905
#        119971
#        136751
#        148847
#        164101
#
# Disc length: 2387 seconds
#
# Revision: 0
# Processed by: cddbd v1.5.2PL0 Copyright (c) Steve Scherf et al.
# Submitted via: ExactAudioCopy v1.3
#
DISCID=a109510c
DTITLE=Erik Darling - Revenge Of The Christmas Tree
DYEAR=2006
DGENRE=christmas
TTITLE0=Revenge Of The Christmas Tree
TTITLE1=Bright Morning Stars
TTITLE2=Santa Claus Is Coming
TTITLE3=Walk Right In, Santa
TTITLE4=Night Before Christmas Song
TTITLE5=Twelve Gates To The City
TTITLE6=Aunt Rhody's Christmas
TTITLE7=Hear Them Bells
TTITLE8=Jingle Bell Food Song
TTITLE9=The Dit-Dit Song
TTITLE10=Merry Christmas
TTITLE11=Love And Joy
EXTD=
EXTT0=
EXTT1=
EXTT2=
EXTT3=
EXTT4=
EXTT5=
EXTT6=
EXTT7=
EXTT8=
EXTT9=
EXTT10=
EXTT11=
PLAYORDER=
